<svg width="24" height="24" viewBox="0 0 24 24" fill="none" xmlns="http://www.w3.org/2000/svg">
<g id="slider">
<g id="Group">
<path id="Vector" d="M2.66666 16.3334H6.66666" stroke="#EEEEEE" stroke-width="2" stroke-linecap="round" stroke-linejoin="round"/>
<path id="Vector_2" d="M12 16.3334H21.3333" stroke="#EEEEEE" stroke-width="2" stroke-linecap="round" stroke-linejoin="round"/>
<path id="Vector_3" d="M2.66666 7.66681H12" stroke="#EEEEEE" stroke-width="2" stroke-linecap="round" stroke-linejoin="round"/>
<path id="Vector_4" d="M17.3333 7.66681H21.3333" stroke="#EEEEEE" stroke-width="2" stroke-linecap="round" stroke-linejoin="round"/>
<path id="Vector_5" d="M9.33332 19.0001C10.8061 19.0001 12 17.8062 12 16.3335C12 14.8607 10.8061 13.6668 9.33332 13.6668C7.86056 13.6668 6.66666 14.8607 6.66666 16.3335C6.66666 17.8062 7.86056 19.0001 9.33332 19.0001Z" stroke="#EEEEEE" stroke-width="2" stroke-linecap="round" stroke-linejoin="round"/>
<path id="Vector_6" d="M14.6667 10.3335C16.1394 10.3335 17.3333 9.13955 17.3333 7.66679C17.3333 6.19403 16.1394 5.00012 14.6667 5.00012C13.1939 5.00012 12 6.19403 12 7.66679C12 9.13955 13.1939 10.3335 14.6667 10.3335Z" stroke="#EEEEEE" stroke-width="2" stroke-linecap="round" stroke-linejoin="round"/>
</g>
</g>
</svg>
