<svg width="24" height="24" viewBox="0 0 24 24" fill="none" xmlns="http://www.w3.org/2000/svg">
<g id="window-paintbrush 1">
<g id="Group">
<g id="Group_2">
<path id="Vector" d="M15.6666 12.3294L22.4479 5.55204C23.1839 4.81604 23.1839 3.62137 22.4479 2.88537C21.7119 2.14937 20.5173 2.14937 19.7813 2.88537L12.9893 9.68004" stroke="#EEEEEE" stroke-width="2" stroke-linecap="round" stroke-linejoin="round"/>
<path id="Vector_2" d="M7.66666 15.7534C10.5493 16.6201 12.8893 16.6921 14.8013 14.7347C15.9547 13.5774 15.9547 11.7001 14.8013 10.5414C13.648 9.38273 11.7867 9.36673 10.624 10.5414C8.73333 12.4534 10.384 14.2681 7.66666 15.7534Z" stroke="#EEEEEE" stroke-width="2" stroke-linecap="round" stroke-linejoin="round"/>
<path id="Vector_3" d="M21.6667 11.0454V17.6667C21.6667 19.14 20.4733 20.3334 19 20.3334H4.99999C3.52666 20.3334 2.33333 19.14 2.33333 17.6667V6.33335C2.33333 4.86002 3.52666 3.66669 4.99999 3.66669H14.2867" stroke="#EEEEEE" stroke-width="2" stroke-linecap="round" stroke-linejoin="round"/>
<path id="Vector_4" d="M5.66666 8.00006C6.21895 8.00006 6.66666 7.55235 6.66666 7.00006C6.66666 6.44778 6.21895 6.00006 5.66666 6.00006C5.11438 6.00006 4.66666 6.44778 4.66666 7.00006C4.66666 7.55235 5.11438 8.00006 5.66666 8.00006Z" fill="#EEEEEE"/>
<path id="Vector_5" d="M9 8.00006C9.55228 8.00006 10 7.55235 10 7.00006C10 6.44778 9.55228 6.00006 9 6.00006C8.44772 6.00006 8 6.44778 8 7.00006C8 7.55235 8.44772 8.00006 9 8.00006Z" fill="#EEEEEE"/>
</g>
</g>
</g>
</svg>
