<svg width="24" height="24" viewBox="0 0 24 24" fill="none" xmlns="http://www.w3.org/2000/svg">
<g id="box-heart 1">
<g id="Group">
<g id="Group_2">
<path id="Vector" d="M12 3V11" stroke="#EEEEEE" stroke-width="2" stroke-linecap="round" stroke-linejoin="round"/>
<path id="Vector_2" d="M4 8.37867L5.932 4.48267C6.38267 3.57467 7.308 3 8.32133 3H15.6787C16.692 3 17.6173 3.57467 18.068 4.48267L20 8.38" stroke="#EEEEEE" stroke-width="2" stroke-linecap="round" stroke-linejoin="round"/>
<path id="Vector_3" d="M20.3334 12.0253V9.66667C20.3334 8.19467 19.14 7 17.6667 7H6.33335C4.86002 7 3.66669 8.19467 3.66669 9.66667V17.6667C3.66669 19.1387 4.86002 20.3333 6.33335 20.3333H11.508" stroke="#EEEEEE" stroke-width="2" stroke-linecap="round" stroke-linejoin="round"/>
<path id="Vector_4" d="M18.3747 22.9294C18.5587 23.024 18.7734 23.024 18.9574 22.9294C19.9294 22.4307 22.9987 20.6227 22.9987 17.684C23.004 16.3934 21.944 15.3414 20.6294 15.3334C19.8387 15.3427 19.104 15.7347 18.6654 16.3814C18.2267 15.736 17.4907 15.344 16.7014 15.3334C15.388 15.3414 14.328 16.392 14.332 17.684C14.332 20.624 17.4027 22.4307 18.3734 22.9294H18.3747Z" stroke="#EEEEEE" stroke-width="2" stroke-linecap="round" stroke-linejoin="round"/>
</g>
</g>
</g>
</svg>
